HIERARCHY
ROOT Hips
{
	OFFSET 0.000000 0.000000 0.000000
	CHANNELS 6 Xposition Yposition Zposition Zrotation Yrotation Xrotation 
	JOINT LHipJoint
	{
		OFFSET 0.000000 0.000000 0.000000
		CHANNELS 3 Zrotation Yrotation Xrotation
		JOINT LeftUpLeg
		{
			OFFSET 1.363060 -1.794630 0.839290
			CHANNELS 3 Zrotation Yrotation Xrotation
			JOINT LeftLeg
			{
				OFFSET 2.448110 -6.726130 0.000000
				CHANNELS 3 Zrotation Yrotation Xrotation
				JOINT LeftFoot
				{
					OFFSET 2.562200 -7.039590 0.000000
					CHANNELS 3 Zrotation Yrotation Xrotation
					JOINT LeftToeBase
					{
						OFFSET 0.157640 -0.433110 2.322550
						CHANNELS 3 Zrotation Yrotation Xrotation
						End Site
						{
							OFFSET 0.000000 0.000000 0.000000
						}
					}
				}
			}
		}
	}
	JOINT RHipJoint
	{
		OFFSET 0.000000 0.000000 0.000000
		CHANNELS 3 Zrotation Yrotation Xrotation
		JOINT RightUpLeg
		{
			OFFSET -1.305520 -1.794630 0.839290
			CHANNELS 3 Zrotation Yrotation Xrotation
			JOINT RightLeg
			{
				OFFSET -2.542530 -6.985550 0.000000
				CHANNELS 3 Zrotation Yrotation Xrotation
				JOINT RightFoot
				{
					OFFSET -2.568260 -7.056230 0.000000
					CHANNELS 3 Zrotation Yrotation Xrotation
					JOINT RightToeBase
					{
						OFFSET -0.164730 -0.452590 2.363150
						CHANNELS 3 Zrotation Yrotation Xrotation
						End Site
						{
							OFFSET 0.000000 0.000000 0.000000
						}
					}
				}
			}
		}
	}
}
MOTION
Frames: 28
Frame Time: 0.008333
6.181183 16.514083 2.559265 93.693867 -87.873594 -67.289953 -10.339723 1.975923 -1.250615 -13.781563 1.169906 -30.077715 -1.128759 2.427520 49.898289 0.648228 2.114372 -9.037925 -0.113900 -0.000000 -67.338701 8.935291 0.377029 4.390128 7.421076 4.990364 -54.177646 3.186773 0.150978 10.126414 -0.108347 -1.524823 6.443896 -1.393100 0.000001 -68.343200
6.040742 16.486345 2.549105 90.216033 -88.363278 -62.945412 -10.555487 1.728906 -1.339120 -13.281076 1.237081 -33.007503 -0.701905 2.688192 53.855673 0.721756 2.821815 -7.357545 -0.025300 0.000000 -65.468200 8.762383 0.227247 4.585169 7.731148 5.924802 -55.680879 3.134604 -0.073948 12.028838 -0.243338 -2.136488 6.315119 -1.594700 0.000000 -67.470599
5.903002 16.454298 2.539793 85.447071 -88.880259 -57.270794 -10.721879 1.452850 -1.428776 -12.816448 1.273925 -36.035960 -0.292971 2.939485 57.759532 0.820914 3.565600 -5.934694 0.073900 0.000001 -61.357900 8.601475 0.100359 4.779021 8.042272 6.896056 -57.301017 3.078384 -0.314298 14.078265 -0.372392 -2.660721 6.010727 -1.756700 -0.000000 -66.600700
5.768380 16.417621 2.530405 78.059232 -89.429591 -48.943292 -10.822862 1.178560 -1.516304 -12.402797 1.276871 -39.142886 0.082379 3.193838 61.543781 0.934478 4.303088 -4.904758 0.171700 0.000000 -55.315900 8.470676 0.022456 4.962577 8.337335 7.891184 -59.013323 3.016471 -0.566723 16.258091 -0.492871 -3.090700 5.536110 -1.872400 -0.000000 -65.722400
5.636904 16.375940 2.520257 -115.156643 -89.933039 145.252196 -10.859629 0.963647 -1.592553 -12.041895 1.261633 -42.338421 0.409669 3.480827 65.140486 1.050359 4.991666 -4.350217 0.252000 -0.000000 -47.972600 8.379457 0.040938 5.126157 8.612920 8.928967 -60.789788 2.953598 -0.820171 18.541473 -0.601109 -3.431991 4.916711 -1.944701 -0.000000 -64.821301
5.508320 16.328840 2.508974 -139.609081 -89.098402 170.741333 -10.989278 0.867801 -1.627278 -11.806797 1.255535 -45.646925 0.659701 3.878917 68.452486 1.158559 5.597066 -4.285386 0.298600 -0.000001 -40.160000 8.217950 0.187199 5.233659 8.826655 10.028855 -62.609774 2.898107 -1.045583 20.924280 -0.684363 -3.671673 4.190702 -1.979600 0.000001 -63.881800
5.382780 16.276312 2.495927 -170.030104 -88.639263 -157.750845 -11.563463 0.500548 -1.587624 -11.879233 0.989609 -48.917763 0.871780 4.296316 71.427646 1.248459 6.093502 -4.607806 0.305800 0.000000 -32.995400 7.649985 0.051465 5.273349 8.748698 10.873190 -64.586217 2.795649 -1.245392 23.373274 -0.764932 -3.829889 3.318848 -1.977899 0.000000 -62.880500
5.259949 16.218126 2.480888 170.558169 -89.025232 -137.209042 -11.895489 -0.156761 -1.544013 -11.869134 0.359458 -52.103652 1.142690 4.496322 74.196514 1.315498 6.436408 -5.266697 0.270099 -0.000000 -27.013400 7.208430 -0.306341 5.375777 8.587378 11.463785 -66.712694 2.642013 -1.497932 25.756393 -0.889892 -4.022183 2.279423 -1.943200 -0.000000 -61.798200
5.139409 16.154280 2.463702 162.813886 -89.389573 -128.284128 -11.935073 -0.645846 -1.476776 -11.739027 -0.355258 -55.352528 1.388845 4.686861 76.657392 1.361627 6.612111 -6.234705 0.191801 -0.000000 -22.311100 7.009979 -0.459392 5.479099 8.480859 12.088426 -68.847860 2.496835 -1.756788 28.137319 -1.012256 -4.181275 1.160468 -1.877600 0.000000 -60.617401
5.020942 16.084763 2.444298 161.455830 -89.590051 -125.697650 -11.899984 -1.004226 -1.360967 -11.588771 -1.171497 -58.644083 1.591077 4.907736 78.763108 1.384334 6.606486 -7.471921 0.076000 -0.000000 -18.743200 6.876781 -0.470838 5.544795 8.347943 12.694194 -71.005158 2.356715 -2.003260 30.545148 -1.123012 -4.283626 -0.027587 -1.783000 -0.000000 -59.327900
4.904084 16.009723 2.422725 163.521562 -89.680248 -126.493775 -11.825829 -1.272969 -1.194471 -11.422670 -2.115087 -61.946427 1.752005 5.138213 80.511773 1.383270 6.413429 -8.930368 -0.065200 0.000000 -16.146000 6.774236 -0.386341 5.571957 8.163540 13.238532 -73.193752 2.215921 -2.240647 32.981475 -1.225461 -4.335045 -1.283896 -1.661401 0.000000 -57.929200
4.788263 15.929227 2.399067 167.552754 -89.709080 -129.220734 -11.705399 -1.463330 -0.981490 -11.225081 -3.186231 -65.240517 1.872914 5.359286 81.910738 1.360805 6.041673 -10.547055 -0.214400 0.000000 -14.425501 6.705996 -0.218928 5.564897 7.923922 13.707489 -75.413465 2.072298 -2.474123 35.448129 -1.322109 -4.343535 -2.603867 -1.515800 -0.000000 -56.435000
4.673018 15.843440 2.373569 172.723662 -89.719890 -133.061303 -11.526724 -1.582905 -0.728669 -10.980015 -4.374214 -68.513040 1.954741 5.554190 82.974033 1.321168 5.513527 -12.245697 -0.352300 0.000000 -13.558199 6.680526 0.022290 5.529822 7.628611 14.097138 -77.662344 1.924861 -2.709113 37.946071 -1.414995 -4.318832 -3.979639 -1.350300 -0.000001 -54.872900
4.557803 15.752406 2.346562 178.499892 -89.751553 -137.487788 -11.283346 -1.644675 -0.443293 -10.677012 -5.663817 -71.755996 1.999311 5.709041 83.722042 1.269573 4.862028 -13.944500 -0.462100 -0.000000 -13.548500 6.702225 0.321600 5.474535 7.276767 14.406161 -79.939736 1.773127 -2.950798 40.473223 -1.505751 -4.271687 -5.399884 -1.169700 -0.000000 -53.284500
4.442247 15.656233 2.318465 -175.511014 -89.833948 -142.114690 -10.978664 -1.667735 -0.132634 -10.312441 -7.037347 -74.967341 2.009880 5.815548 84.180710 1.211185 4.125774 -15.567054 -0.533300 0.000000 -14.370900 6.767428 0.655999 5.407158 6.866331 14.635891 -82.247218 1.616396 -3.203106 43.025415 -1.595584 -4.213383 -6.850004 -0.979800 -0.000001 -51.721700
4.325774 15.554807 2.289829 -169.597000 -89.983093 -146.655060 -10.626174 -1.671669 0.197291 -9.888006 -8.473239 -78.150907 1.990887 5.872995 84.379680 1.150296 3.343041 -17.052079 -0.562799 -0.000000 -15.923600 6.865105 0.999666 5.335616 6.395914 14.791248 -84.586296 1.453774 -3.467455 45.596039 -1.684889 -4.153581 -8.312191 -0.786000 -0.000000 -50.241099
4.208104 15.448146 2.261222 16.020759 -89.801357 29.109092 -10.245676 -1.671599 0.541261 -9.408083 -9.944563 -81.315346 1.947482 5.888170 84.350610 1.089498 2.544994 -18.358371 -0.554100 0.000000 -18.020400 6.979494 1.330247 5.266665 5.867465 14.883938 -86.955679 1.284011 -3.742191 48.175424 -1.773506 -4.100688 -9.765043 -0.593700 0.000000 -48.913300
4.088878 15.336024 2.233207 21.242529 -89.532258 25.279203 -9.855934 -1.673660 0.895369 -8.877256 -11.424951 -84.473228 1.885345 5.871902 84.127705 1.029777 1.754323 -19.462669 -0.514100 0.000000 -20.434799 7.096894 1.634797 5.205387 5.285452 14.928585 -89.355019 1.106284 -4.024290 50.757799 -1.860523 -4.056558 -11.196708 -0.405600 0.000000 -47.733200
3.967949 15.218395 2.206399 25.946494 -89.231042 21.975017 -9.476126 -1.679353 1.256264 -8.295176 -12.879697 -87.631912 1.809749 5.837160 83.745713 0.969525 0.979467 -20.355500 -0.450000 -0.000000 -22.956600 7.204374 1.904284 5.156710 4.662674 14.948261 -91.774930 0.919815 -4.308364 53.328190 -1.945626 -4.026889 -12.584803 -0.225000 0.000000 -46.790101
3.845124 15.095169 2.181294 30.101703 -88.920979 19.226273 -9.119682 -1.684890 1.621716 -7.660137 -14.279045 -90.792898 1.725738 5.795221 83.240784 0.905523 0.219889 -21.034955 -0.368000 0.000001 -25.442100 7.295165 2.136928 5.123706 4.015154 14.963328 -94.205761 0.725128 -4.590162 55.877008 -2.028168 -4.010598 -13.921847 -0.052600 -0.000000 -46.082599
3.720440 14.966191 2.158312 33.710851 -88.622332 17.026492 -8.795922 -1.686040 1.989633 -6.968111 -15.597840 -93.951315 1.638284 5.755348 82.653316 0.833475 -0.531232 -21.505739 -0.272900 -0.000000 -27.818700 7.366491 2.334871 5.106999 3.361093 14.989353 -96.638572 0.523752 -4.867354 58.399902 -2.107415 -4.002460 -15.211114 0.112600 -0.000001 -45.575300
3.593890 14.831579 2.137849 36.743683 -88.355878 15.397254 -8.513421 -1.680607 2.358018 -6.213496 -16.808340 -97.090997 1.551972 5.725386 82.027419 0.748450 -1.285651 -21.780758 -0.167900 -0.000000 -30.059200 7.416593 2.499836 5.106034 2.724894 15.043761 -99.055254 0.317654 -5.137677 60.888697 -2.183169 -3.999716 -16.452375 0.271200 0.000000 -45.283899
3.465427 14.691362 2.120143 39.208034 -88.136883 14.321568 -8.277075 -1.668323 2.724630 -5.393821 -17.890050 -100.188209 1.471620 5.710831 81.413949 0.646729 -2.052766 -21.883325 -0.056199 -0.000000 -32.156000 7.446634 2.635703 5.117970 2.129543 15.136266 -101.437707 0.109510 -5.401197 63.343264 -2.254862 -3.994070 -17.659746 0.425400 0.000000 -45.158900
3.335246 14.545723 2.105371 41.107588 -87.977759 13.780560 -8.089125 -1.652159 3.086254 -4.508019 -18.827300 -103.216012 1.402974 5.715619 80.872126 0.526905 -2.836082 -21.849347 0.058700 0.000000 -34.092000 7.458127 2.747562 5.137663 1.597673 15.272864 -103.766248 -0.097990 -5.659465 65.768248 -2.322013 -3.976151 -18.853066 0.577600 0.000000 -45.123800
3.203515 14.395172 2.093629 42.427014 -87.888655 13.770015 -7.950146 -1.637558 3.438950 -3.559312 -19.606465 -106.141517 1.352364 5.742124 80.465152 0.390518 -3.632064 -21.727206 0.173700 0.000001 -35.834000 7.452268 2.840092 5.159506 1.150874 15.458812 -106.014657 -0.302721 -5.913797 68.166598 -2.384309 -3.938422 -20.048076 0.729200 0.000001 -45.152401
3.070272 14.240172 2.084901 43.157696 -87.875965 14.281789 -7.858189 -1.631227 3.778526 -2.553834 -20.221565 -108.933568 1.327153 5.790680 80.258136 0.242984 -4.426205 -21.575584 0.286000 0.000000 -37.326100 7.430132 2.918795 5.177457 0.805642 15.695868 -108.158007 -0.503222 -6.165954 70.545373 -2.441539 -3.872725 -21.263939 0.881500 0.000000 -45.182900
2.935616 14.081418 2.079144 43.284456 -87.942918 15.312369 -7.809602 -1.640484 4.100668 -1.500905 -20.673251 -111.562153 1.334991 5.859687 80.310797 0.093263 -5.193838 -21.459691 0.394000 0.000000 -38.501400 7.391836 2.989023 5.185860 0.572835 15.983721 -110.170964 -0.699076 -6.416953 72.910372 -2.493783 -3.773321 -22.514736 1.034500 0.000000 -45.171700
2.799624 13.919755 2.076193 42.796263 -88.088745 16.856703 -7.799930 -1.672123 4.401633 -0.413470 -20.970472 -113.999367 1.382910 5.945687 80.670469 -0.046933 -5.900963 -21.444643 0.497900 0.000000 -39.293900 7.336657 3.055502 5.180302 0.455453 16.319542 -112.030029 -0.891276 -6.666460 75.265657 -2.541454 -3.638069 -23.806454 1.186900 0.000000 -45.112000
